<?xml version="1.0" encoding="UTF-8" standalone="no"?>
<!DOCTYPE svg PUBLIC "-//W3C//DTD SVG 1.1//EN"
 "http://www.w3.org/Graphics/SVG/1.1/DTD/svg11.dtd">
<!-- Generated by graphviz version 8.0.5 (20230506.1012)
 -->
<!-- Title: snakemake_dag Pages: 1 -->
<svg width="427pt" height="404pt"
 viewBox="0.00 0.00 427.09 404.00" xmlns="http://www.w3.org/2000/svg" xmlns:xlink="http://www.w3.org/1999/xlink">
<g id="graph0" class="graph" transform="scale(1 1) rotate(0) translate(4 400)">
<title>snakemake_dag</title>
<polygon fill="white" stroke="none" points="-4,4 -4,-400 423.09,-400 423.09,4 -4,4"/>
<!-- 0 -->
<g id="node1" class="node">
<title>0</title>
<path fill="none" stroke="#d85656" stroke-width="2" d="M210.09,-36C210.09,-36 180.09,-36 180.09,-36 174.09,-36 168.09,-30 168.09,-24 168.09,-24 168.09,-12 168.09,-12 168.09,-6 174.09,0 180.09,0 180.09,0 210.09,0 210.09,0 216.09,0 222.09,-6 222.09,-12 222.09,-12 222.09,-24 222.09,-24 222.09,-30 216.09,-36 210.09,-36"/>
<text text-anchor="middle" x="195.09" y="-14.88" font-family="sans" font-size="10.00">all</text>
</g>
<!-- 1 -->
<g id="node2" class="node">
<title>1</title>
<path fill="none" stroke="#d8cb56" stroke-width="2" d="M85.09,-396C85.09,-396 55.09,-396 55.09,-396 49.09,-396 43.09,-390 43.09,-384 43.09,-384 43.09,-372 43.09,-372 43.09,-366 49.09,-360 55.09,-360 55.09,-360 85.09,-360 85.09,-360 91.09,-360 97.09,-366 97.09,-372 97.09,-372 97.09,-384 97.09,-384 97.09,-390 91.09,-396 85.09,-396"/>
<text text-anchor="middle" x="70.09" y="-374.88" font-family="sans" font-size="10.00">import</text>
</g>
<!-- 1&#45;&gt;0 -->
<g id="edge1" class="edge">
<title>1&#45;&gt;0</title>
<path fill="none" stroke="grey" stroke-width="2" d="M55,-359.04C34.96,-333.3 2.09,-283.65 2.09,-235 2.09,-235 2.09,-235 2.09,-161 2.09,-120.55 -6.27,-101.79 21.09,-72 55.26,-34.78 114.7,-23.38 154.47,-20.07"/>
<polygon fill="grey" stroke="grey" stroke-width="2" points="154.64,-23.37 164.38,-19.21 154.18,-16.38 154.64,-23.37"/>
</g>
<!-- 2 -->
<g id="node3" class="node">
<title>2</title>
<path fill="none" stroke="#70d856" stroke-width="2" d="M98.34,-108C98.34,-108 41.84,-108 41.84,-108 35.84,-108 29.84,-102 29.84,-96 29.84,-96 29.84,-84 29.84,-84 29.84,-78 35.84,-72 41.84,-72 41.84,-72 98.34,-72 98.34,-72 104.34,-72 110.34,-78 110.34,-84 110.34,-84 110.34,-96 110.34,-96 110.34,-102 104.34,-108 98.34,-108"/>
<text text-anchor="middle" x="70.09" y="-86.88" font-family="sans" font-size="10.00">read_viz_raw</text>
</g>
<!-- 1&#45;&gt;2 -->
<g id="edge9" class="edge">
<title>1&#45;&gt;2</title>
<path fill="none" stroke="grey" stroke-width="2" d="M70.09,-359.11C70.09,-311.56 70.09,-181.6 70.09,-121.83"/>
<polygon fill="grey" stroke="grey" stroke-width="2" points="73.59,-121.88 70.09,-111.88 66.59,-121.88 73.59,-121.88"/>
</g>
<!-- 3 -->
<g id="node4" class="node">
<title>3</title>
<path fill="none" stroke="#5692d8" stroke-width="2" d="M193.09,-324C193.09,-324 163.09,-324 163.09,-324 157.09,-324 151.09,-318 151.09,-312 151.09,-312 151.09,-300 151.09,-300 151.09,-294 157.09,-288 163.09,-288 163.09,-288 193.09,-288 193.09,-288 199.09,-288 205.09,-294 205.09,-300 205.09,-300 205.09,-312 205.09,-312 205.09,-318 199.09,-324 193.09,-324"/>
<text text-anchor="middle" x="178.09" y="-302.88" font-family="sans" font-size="10.00">trim</text>
</g>
<!-- 1&#45;&gt;3 -->
<g id="edge10" class="edge">
<title>1&#45;&gt;3</title>
<path fill="none" stroke="grey" stroke-width="2" d="M97.62,-359.15C110.44,-350.84 125.91,-340.82 139.84,-331.79"/>
<polygon fill="grey" stroke="grey" stroke-width="2" points="142.12,-334.19 148.61,-325.81 138.31,-328.31 142.12,-334.19"/>
</g>
<!-- 2&#45;&gt;0 -->
<g id="edge2" class="edge">
<title>2&#45;&gt;0</title>
<path fill="none" stroke="grey" stroke-width="2" d="M101.95,-71.15C118.45,-61.92 138.73,-50.56 156.15,-40.81"/>
<polygon fill="grey" stroke="grey" stroke-width="2" points="158.1,-43.61 165.11,-35.67 154.68,-37.5 158.1,-43.61"/>
</g>
<!-- 3&#45;&gt;0 -->
<g id="edge3" class="edge">
<title>3&#45;&gt;0</title>
<path fill="none" stroke="grey" stroke-width="2" d="M169.15,-287.36C164.55,-277.28 159.43,-264.25 157.09,-252 143.23,-179.42 167.74,-93.52 183.44,-49.05"/>
<polygon fill="grey" stroke="grey" stroke-width="2" points="186.74,-49.48 186.89,-38.89 180.17,-47.08 186.74,-49.48"/>
</g>
<!-- 4 -->
<g id="node5" class="node">
<title>4</title>
<path fill="none" stroke="#56d873" stroke-width="2" d="M258.34,-252C258.34,-252 177.84,-252 177.84,-252 171.84,-252 165.84,-246 165.84,-240 165.84,-240 165.84,-228 165.84,-228 165.84,-222 171.84,-216 177.84,-216 177.84,-216 258.34,-216 258.34,-216 264.34,-216 270.34,-222 270.34,-228 270.34,-228 270.34,-240 270.34,-240 270.34,-246 264.34,-252 258.34,-252"/>
<text text-anchor="middle" x="218.09" y="-230.88" font-family="sans" font-size="10.00">read_viz_trimmed</text>
</g>
<!-- 3&#45;&gt;4 -->
<g id="edge11" class="edge">
<title>3&#45;&gt;4</title>
<path fill="none" stroke="grey" stroke-width="2" d="M188.18,-287.34C192.23,-280.26 196.99,-271.92 201.52,-264"/>
<polygon fill="grey" stroke="grey" stroke-width="2" points="204.94,-265.32 206.86,-254.9 198.86,-261.85 204.94,-265.32"/>
</g>
<!-- 5 -->
<g id="node6" class="node">
<title>5</title>
<path fill="none" stroke="#d88d56" stroke-width="2" d="M330.09,-252C330.09,-252 300.09,-252 300.09,-252 294.09,-252 288.09,-246 288.09,-240 288.09,-240 288.09,-228 288.09,-228 288.09,-222 294.09,-216 300.09,-216 300.09,-216 330.09,-216 330.09,-216 336.09,-216 342.09,-222 342.09,-228 342.09,-228 342.09,-240 342.09,-240 342.09,-246 336.09,-252 330.09,-252"/>
<text text-anchor="middle" x="315.09" y="-230.88" font-family="sans" font-size="10.00">dada2</text>
</g>
<!-- 3&#45;&gt;5 -->
<g id="edge12" class="edge">
<title>3&#45;&gt;5</title>
<path fill="none" stroke="grey" stroke-width="2" d="M205.81,-290.83C225.96,-280.54 253.51,-266.46 275.9,-255.02"/>
<polygon fill="grey" stroke="grey" stroke-width="2" points="278.09,-257.81 285.41,-250.14 274.91,-251.58 278.09,-257.81"/>
</g>
<!-- 4&#45;&gt;0 -->
<g id="edge4" class="edge">
<title>4&#45;&gt;0</title>
<path fill="none" stroke="grey" stroke-width="2" d="M210.57,-215.2C206.67,-205.08 202.27,-192.05 200.09,-180 191.93,-134.98 192.16,-81.73 193.39,-49.17"/>
<polygon fill="grey" stroke="grey" stroke-width="2" points="197,-49.72 193.95,-39.57 190.01,-49.4 197,-49.72"/>
</g>
<!-- 5&#45;&gt;0 -->
<g id="edge5" class="edge">
<title>5&#45;&gt;0</title>
<path fill="none" stroke="grey" stroke-width="2" d="M300.25,-215.41C292.08,-205.36 282.02,-192.32 274.09,-180 246.12,-136.55 221.21,-81.77 207.15,-48.61"/>
<polygon fill="grey" stroke="grey" stroke-width="2" points="210.23,-46.5 203.14,-38.63 203.77,-49.2 210.23,-46.5"/>
</g>
<!-- 6 -->
<g id="node7" class="node">
<title>6</title>
<path fill="none" stroke="#56d8a9" stroke-width="2" d="M335.46,-180C335.46,-180 294.71,-180 294.71,-180 288.71,-180 282.71,-174 282.71,-168 282.71,-168 282.71,-156 282.71,-156 282.71,-150 288.71,-144 294.71,-144 294.71,-144 335.46,-144 335.46,-144 341.46,-144 347.46,-150 347.46,-156 347.46,-156 347.46,-168 347.46,-168 347.46,-174 341.46,-180 335.46,-180"/>
<text text-anchor="middle" x="315.09" y="-158.88" font-family="sans" font-size="10.00">taxonomy</text>
</g>
<!-- 5&#45;&gt;6 -->
<g id="edge13" class="edge">
<title>5&#45;&gt;6</title>
<path fill="none" stroke="grey" stroke-width="2" d="M315.09,-215.34C315.09,-208.75 315.09,-201.08 315.09,-193.67"/>
<polygon fill="grey" stroke="grey" stroke-width="2" points="318.59,-193.9 315.09,-183.9 311.59,-193.9 318.59,-193.9"/>
</g>
<!-- 8 -->
<g id="node9" class="node">
<title>8</title>
<path fill="none" stroke="#afd856" stroke-width="2" d="M407.09,-180C407.09,-180 377.09,-180 377.09,-180 371.09,-180 365.09,-174 365.09,-168 365.09,-168 365.09,-156 365.09,-156 365.09,-150 371.09,-144 377.09,-144 377.09,-144 407.09,-144 407.09,-144 413.09,-144 419.09,-150 419.09,-156 419.09,-156 419.09,-168 419.09,-168 419.09,-174 413.09,-180 407.09,-180"/>
<text text-anchor="middle" x="392.09" y="-158.88" font-family="sans" font-size="10.00">tree</text>
</g>
<!-- 5&#45;&gt;8 -->
<g id="edge15" class="edge">
<title>5&#45;&gt;8</title>
<path fill="none" stroke="grey" stroke-width="2" d="M334.52,-215.34C343.12,-207.52 353.41,-198.16 362.9,-189.53"/>
<polygon fill="grey" stroke="grey" stroke-width="2" points="365.35,-192.22 370.4,-182.9 360.64,-187.04 365.35,-192.22"/>
</g>
<!-- 6&#45;&gt;0 -->
<g id="edge6" class="edge">
<title>6&#45;&gt;0</title>
<path fill="none" stroke="grey" stroke-width="2" d="M299.89,-143.02C279.33,-118.69 242.47,-75.07 218.4,-46.58"/>
<polygon fill="grey" stroke="grey" stroke-width="2" points="220.29,-44.22 211.16,-38.84 214.94,-48.74 220.29,-44.22"/>
</g>
<!-- 7 -->
<g id="node8" class="node">
<title>7</title>
<path fill="none" stroke="#56c9d8" stroke-width="2" d="M352.21,-108C352.21,-108 291.96,-108 291.96,-108 285.96,-108 279.96,-102 279.96,-96 279.96,-96 279.96,-84 279.96,-84 279.96,-78 285.96,-72 291.96,-72 291.96,-72 352.21,-72 352.21,-72 358.21,-72 364.21,-78 364.21,-84 364.21,-84 364.21,-96 364.21,-96 364.21,-102 358.21,-108 352.21,-108"/>
<text text-anchor="middle" x="322.09" y="-86.88" font-family="sans" font-size="10.00">taxonomy_viz</text>
</g>
<!-- 6&#45;&gt;7 -->
<g id="edge14" class="edge">
<title>6&#45;&gt;7</title>
<path fill="none" stroke="grey" stroke-width="2" d="M316.85,-143.34C317.51,-136.75 318.28,-129.08 319.02,-121.67"/>
<polygon fill="grey" stroke="grey" stroke-width="2" points="322.79,-122.2 320.3,-111.9 315.82,-121.5 322.79,-122.2"/>
</g>
<!-- 7&#45;&gt;0 -->
<g id="edge7" class="edge">
<title>7&#45;&gt;0</title>
<path fill="none" stroke="grey" stroke-width="2" d="M289.71,-71.15C272.71,-61.78 251.76,-50.23 233.89,-40.39"/>
<polygon fill="grey" stroke="grey" stroke-width="2" points="235.12,-36.97 224.67,-35.2 231.74,-43.1 235.12,-36.97"/>
</g>
<!-- 8&#45;&gt;0 -->
<g id="edge8" class="edge">
<title>8&#45;&gt;0</title>
<path fill="none" stroke="grey" stroke-width="2" d="M393.29,-143.24C393.62,-123.35 390.99,-91.38 373.09,-72 337.9,-33.91 276.68,-22.76 236.02,-19.74"/>
<polygon fill="grey" stroke="grey" stroke-width="2" points="236.27,-16.07 226.08,-18.99 235.86,-23.06 236.27,-16.07"/>
</g>
</g>
</svg>
